HIERARCHY
ROOT Hips
{
	OFFSET 0.000000 0.000000 0.000000
	CHANNELS 6 Xposition Yposition Zposition Xrotation Yrotation Zrotation
	JOINT LeftUpLeg_virtual
	{
		OFFSET 0.000000 0.000000 0.000000
		CHANNELS 3 Xrotation Yrotation Zrotation
		JOINT LeftUpLeg
		{
			OFFSET 15.427100 -6.655098 0.678600
			CHANNELS 3 Xrotation Yrotation Zrotation
			JOINT LeftLeg
			{
				OFFSET 4.081073 -39.591068 13.024000
				CHANNELS 3 Xrotation Yrotation Zrotation
				JOINT LeftFoot
				{
					OFFSET -4.081074 -37.707932 -15.979700
					CHANNELS 3 Xrotation Yrotation Zrotation
					JOINT LeftToeBase
					{
						OFFSET 5.346399 -15.068900 20.645000
						CHANNELS 3 Xrotation Yrotation Zrotation
						JOINT LeftToe_End
						{
							OFFSET 2.754700 0.931300 11.300900
							CHANNELS 3 Xrotation Yrotation Zrotation
							End Site
							{
								OFFSET 0 0 0
							}
						}
					}
				}
			}
		}
	}
	JOINT RightUpLeg_virtual
	{
		OFFSET 0.000000 0.000000 0.000000
		CHANNELS 3 Xrotation Yrotation Zrotation
		JOINT RightUpLeg
		{
			OFFSET -15.569500 -6.655098 0.678600
			CHANNELS 3 Xrotation Yrotation Zrotation
			JOINT RightLeg
			{
				OFFSET -4.081825 -39.591045 13.023800
				CHANNELS 3 Xrotation Yrotation Zrotation
				JOINT RightFoot
				{
					OFFSET 4.081824 -37.707954 -15.979600
					CHANNELS 3 Xrotation Yrotation Zrotation
					JOINT RightToeBase
					{
						OFFSET -5.346400 -15.068900 20.645000
						CHANNELS 3 Xrotation Yrotation Zrotation
						JOINT RightToe_End
						{
							OFFSET -2.754700 0.931300 11.300900
							CHANNELS 3 Xrotation Yrotation Zrotation
							End Site
							{
								OFFSET 0 0 0
							}
						}
					}
				}
			}
		}
	}
	JOINT Spine_virtual
	{
		OFFSET 0.000000 0.000000 0.000000
		CHANNELS 3 Xrotation Yrotation Zrotation
		JOINT Spine
		{
			OFFSET -0.279200 12.230698 -2.892100
			CHANNELS 3 Xrotation Yrotation Zrotation
			JOINT Spine1
			{
				OFFSET -0.232667 10.192268 -1.242267
				CHANNELS 3 Xrotation Yrotation Zrotation
				JOINT Spine1_split
				{
					OFFSET -0.232667 10.192268 -1.242267
					CHANNELS 3 Xrotation Yrotation Zrotation
					JOINT Spine2
					{
						OFFSET -0.232667 10.192268 -1.242267
						CHANNELS 3 Xrotation Yrotation Zrotation
						JOINT Neck_virtual
						{
							OFFSET 0.000000 0.000000 0.000000
							CHANNELS 3 Xrotation Yrotation Zrotation
							JOINT Neck
							{
								OFFSET -0.418800 17.814194 8.416900
								CHANNELS 3 Xrotation Yrotation Zrotation
								JOINT Head
								{
									OFFSET 0.000000 7.031097 3.806800
									CHANNELS 3 Xrotation Yrotation Zrotation
									JOINT HeadTop_End
									{
										OFFSET 0.000000 24.646606 12.978600
										CHANNELS 3 Xrotation Yrotation Zrotation
										End Site
										{
											OFFSET 0 0 0
										}
									}
								}
							}
						}
						JOINT LeftShoulder_virtual
						{
							OFFSET 0.000000 0.000000 0.000000
							CHANNELS 3 Xrotation Yrotation Zrotation
							JOINT LeftShoulder
							{
								OFFSET 8.476499 7.247704 -3.868750
								CHANNELS 3 Xrotation Yrotation Zrotation
								JOINT LeftShoulder_split
								{
									OFFSET 8.476499 7.247704 -3.868750
									CHANNELS 3 Xrotation Yrotation Zrotation
									JOINT LeftArm
									{
										OFFSET 9.308998 -2.777710 0.208600
										CHANNELS 3 Xrotation Yrotation Zrotation
										JOINT LeftForeArm
										{
											OFFSET 29.972298 0.000000 0.000000
											CHANNELS 3 Xrotation Yrotation Zrotation
											JOINT LeftHand
											{
												OFFSET 26.026505 0.000000 0.000000
												CHANNELS 3 Xrotation Yrotation Zrotation
												End Site
												{
													OFFSET 0 0 0
												}
											}
										}
									}
								}
							}
						}
						JOINT RightShoulder_virtual
						{
							OFFSET 0.000000 0.000000 0.000000
							CHANNELS 3 Xrotation Yrotation Zrotation
							JOINT RightShoulder
							{
								OFFSET -7.570500 7.247704 -3.868750
								CHANNELS 3 Xrotation Yrotation Zrotation
								JOINT RightShoulder_split
								{
									OFFSET -7.570500 7.247704 -3.868750
									CHANNELS 3 Xrotation Yrotation Zrotation
									JOINT RightArm
									{
										OFFSET -9.308998 -2.777710 0.208500
										CHANNELS 3 Xrotation Yrotation Zrotation
										JOINT RightForeArm
										{
											OFFSET -29.972300 0.000000 0.000000
											CHANNELS 3 Xrotation Yrotation Zrotation
											JOINT RightHand
											{
												OFFSET -26.026505 0.000000 0.000000
												CHANNELS 3 Xrotation Yrotation Zrotation
												End Site
												{
													OFFSET 0 0 0
												}
											}
										}
									}
								}
							}
						}
					}
				}
			}
		}
	}
}
MOTION
Frames: 11
Frame Time: 0.03333333
1.727414 81.212448 9.411274 0.000000 0.000000 0.000000 -14.724856 -19.833717 -5.890257 -95.698498 5.883367 33.909932 108.607350 -15.470614 -2.365561 -31.200615 -6.151452 31.812019 -32.866648 -0.791600 -10.557478 0.000000 0.000000 0.000000 -14.597426 -24.506193 -6.627755 -111.393787 -10.374846 -23.781530 115.309043 21.281218 -0.774544 3.949973 -10.240975 4.300716 -24.673502 9.227676 11.653892 0.000000 0.000000 0.000000 -10.915596 -24.812819 -7.145635 3.818204 8.253458 0.595922 14.691368 1.900763 -1.587748 0.487519 -13.880568 2.102157 0.000000 0.000000 0.000000 20.501229 1.411901 -1.086112 -25.958163 -1.565294 -4.598109 -9.624391 12.246439 3.397355 0.000000 0.000000 0.000000 16.376871 1.845448 -1.212178 2.267379 -3.954811 39.589296 1.072675 -3.689236 0.050204 -47.510147 -27.590822 -8.415581 -19.135427 -36.010393 0.525377 0.000000 0.000000 0.000000 15.829732 1.205131 -0.966027 10.895474 19.776873 -36.009696 6.653499 3.621548 -0.725125 -55.690637 21.591456 12.378255 -16.163226 39.068231 5.791811 0.000000 0.000000 0.000000 
1.213860 79.379562 9.502522 0.000000 0.000000 0.000000 -16.722870 -19.274626 -6.177530 -97.703991 6.407482 33.633436 109.979365 -15.980705 -2.067807 -29.141870 -5.210553 29.715745 -35.949229 -1.357457 -9.125091 0.000000 0.000000 0.000000 -16.706424 -22.507094 -6.942954 -112.550234 -8.455833 -23.338843 115.956422 21.444023 -0.117350 6.132537 -10.407360 4.278579 -25.371315 8.392815 12.969126 0.000000 0.000000 0.000000 -13.523227 -24.413570 -7.534355 3.969564 7.669323 0.777620 14.643314 1.863425 -1.374860 0.933873 -10.608314 2.931647 0.000000 0.000000 0.000000 20.130465 1.243236 -0.878861 -24.522374 -1.047023 -4.138894 -9.131745 13.275215 3.463696 0.000000 0.000000 0.000000 16.460059 1.692094 -0.810792 2.295937 -4.255404 39.853163 -0.949503 -3.538125 0.952625 -51.018761 -26.918100 -7.618944 -19.188517 -34.089857 1.400230 0.000000 0.000000 0.000000 15.228672 0.876672 -0.903859 10.887472 21.133452 -35.747182 6.622224 -0.216693 -0.226945 -58.246064 19.389782 13.006480 -18.571327 42.110845 7.394576 0.000000 0.000000 0.000000 
0.638390 77.506927 9.850838 0.000000 0.000000 0.000000 -18.984121 -18.479109 -6.491169 -99.228790 7.203991 33.877936 111.094618 -16.692267 -1.160860 -24.231133 -3.851791 26.716512 -41.536132 -2.056883 -7.949016 0.000000 0.000000 0.000000 -19.753088 -20.088437 -7.273050 -112.049103 -5.661516 -23.828184 116.407529 21.027373 0.536834 8.280644 -10.280212 3.098863 -25.346513 7.729673 15.099788 0.000000 0.000000 0.000000 -16.509085 -23.345184 -8.087234 4.212021 6.601008 0.871247 14.012214 1.614218 -0.905625 5.387277 -7.278151 3.703842 0.000000 0.000000 0.000000 18.890285 1.040716 -0.519994 -23.047210 -0.645551 -3.018969 -8.852169 13.654143 2.982686 0.000000 0.000000 0.000000 15.328906 1.418665 -0.214705 2.483949 -4.942523 40.551257 -1.522145 -3.913510 1.579892 -55.882654 -24.786820 -9.342529 -18.937797 -34.525459 2.246229 0.000000 0.000000 0.000000 13.741675 0.484622 -0.595396 10.575874 22.306337 -35.219218 6.423243 -3.499581 0.801648 -58.866593 18.108507 12.610841 -21.567292 45.109332 8.570641 0.000000 0.000000 0.000000 
0.449591 76.626854 10.104679 0.000000 0.000000 0.000000 -21.343404 -17.332788 -6.605047 -99.301498 8.329954 35.003070 110.551229 -17.249709 -0.560865 -18.683685 -2.456090 23.904747 -47.678388 -2.489903 -7.869540 0.000000 0.000000 0.000000 -22.962686 -17.441371 -7.354412 -109.474129 -2.586879 -25.155913 115.820884 20.250992 0.941092 9.951425 -9.515457 1.501022 -25.686262 7.296387 17.607879 0.000000 0.000000 0.000000 -19.447656 -21.896748 -8.644339 4.831021 5.284144 0.920380 13.274454 1.242585 -0.344163 8.258728 -2.085188 2.660347 0.000000 0.000000 0.000000 17.302558 0.849108 -0.097446 -22.044156 -0.635191 -1.397753 -8.782367 13.456004 2.046317 0.000000 0.000000 0.000000 13.848298 1.024837 0.434121 2.741772 -5.778685 41.057633 -0.988057 -4.079569 2.322591 -60.371038 -21.559794 -12.940851 -18.512157 -36.166214 3.043944 0.000000 0.000000 0.000000 12.112973 0.145457 -0.074384 10.212274 23.253954 -34.653825 5.763562 -4.654811 1.358083 -57.497516 17.900628 12.439017 -24.097775 48.035228 8.815070 0.000000 0.000000 0.000000 
0.531468 77.157776 9.721996 0.000000 0.000000 0.000000 -24.319560 -16.486308 -6.665378 -97.173737 9.180972 36.305409 108.185661 -18.340731 0.003459 -12.638909 -1.019258 19.769487 -54.015755 -2.468688 -8.428406 0.000000 0.000000 0.000000 -26.200889 -14.632309 -7.051088 -104.349738 -0.151038 -26.973889 114.078509 19.357552 0.969503 11.489724 -8.004638 -0.072361 -28.636599 6.801320 20.130574 0.000000 0.000000 0.000000 -22.315102 -20.329880 -8.995532 5.877138 4.062247 1.007222 12.945196 0.783173 0.209568 8.986556 1.929559 1.423388 0.000000 0.000000 0.000000 16.193501 0.639234 0.291791 -21.787272 -1.309564 0.344596 -8.422637 12.958885 0.889548 0.000000 0.000000 0.000000 12.891350 0.608065 0.973138 2.924665 -6.412634 40.883634 0.665397 -3.564325 3.397549 -63.962024 -17.718441 -17.608690 -18.267689 -37.313409 3.828920 0.000000 0.000000 0.000000 11.207254 -0.073383 0.563538 9.779085 23.844443 -34.344998 5.081541 -3.522233 1.517780 -54.980161 18.520591 13.103901 -25.093543 50.262764 7.487574 0.000000 0.000000 0.000000 
0.884872 79.171631 8.578655 0.000000 0.000000 0.000000 -27.924129 -16.240161 -6.720598 -92.774302 9.701902 37.415059 104.482886 -20.060597 0.841889 -6.136055 -0.013998 14.001313 -61.318467 -2.146295 -9.003463 0.000000 0.000000 0.000000 -29.110543 -12.455172 -6.463964 -97.227511 0.846959 -29.085254 111.271896 18.295384 0.744594 13.726322 -6.221806 -1.063520 -36.076851 5.635038 22.295037 0.000000 0.000000 0.000000 -25.512078 -18.827357 -8.966036 7.320161 3.341356 1.158037 13.548804 0.360005 0.517416 7.941821 3.703816 0.242866 0.000000 0.000000 0.000000 16.512527 0.388025 0.480811 -21.980671 -2.575406 1.751744 -7.182648 13.135255 -0.130541 0.000000 0.000000 0.000000 13.325546 0.212663 1.228337 2.891002 -6.557604 39.506651 2.241535 -1.552351 4.230279 -66.501829 -14.313686 -22.282048 -18.423073 -37.402331 4.672195 0.000000 0.000000 0.000000 11.770053 -0.217518 1.125501 9.238802 24.240615 -34.456587 3.879442 -1.085518 1.254304 -52.589748 19.511955 14.882718 -23.740129 51.196554 4.142499 0.000000 0.000000 0.000000 
1.160916 82.271149 6.831787 0.000000 0.000000 0.000000 -31.715618 -15.920718 -6.636912 -85.788412 11.052811 37.929673 99.587628 -21.477057 1.073521 -0.752390 0.835094 9.835254 -70.384375 -1.573983 -9.533108 0.000000 0.000000 0.000000 -31.755230 -11.318219 -5.882075 -89.016435 -0.162017 -31.021579 107.202121 17.099713 0.705291 16.888051 -4.618359 -0.994492 -47.229392 3.521484 23.643060 0.000000 0.000000 0.000000 -29.090452 -17.342508 -8.608816 8.843597 3.241338 1.504384 15.275706 0.068065 0.531342 4.396552 4.132825 -0.836389 0.000000 0.000000 0.000000 18.487087 0.151259 0.333509 -21.864209 -3.947913 2.479717 -4.782001 13.539814 -0.666172 0.000000 0.000000 0.000000 15.611630 -0.128034 1.092980 2.821021 -6.486576 36.735978 3.207759 0.959848 5.075308 -68.959782 -12.004848 -26.435149 -18.474840 -36.517873 5.959332 0.000000 0.000000 0.000000 14.148748 -0.171888 1.365039 8.831980 24.780821 -34.505450 2.348064 1.539729 1.095613 -51.556546 19.791142 17.293878 -20.308201 49.950338 -0.778054 0.000000 0.000000 0.000000 
1.244320 86.537430 4.836994 0.000000 0.000000 0.000000 -35.241222 -15.134482 -6.570450 -76.176717 13.562532 37.072925 93.242136 -22.404986 1.255902 4.242817 2.091211 6.436548 -81.922231 -0.661679 -9.528134 0.000000 0.000000 0.000000 -34.202080 -10.598836 -5.531347 -80.224383 -3.177090 -32.142580 102.017352 15.912235 0.992119 20.864078 -3.237721 0.415176 -59.997816 0.798829 23.872568 0.000000 0.000000 0.000000 -32.656746 -16.251812 -8.311258 10.017597 3.609694 2.044868 17.995815 -0.079523 0.349003 1.380321 3.400433 -1.092635 0.000000 0.000000 0.000000 21.956055 -0.082417 -0.076121 -20.597776 -5.104723 2.371173 -1.257477 13.575278 -0.554531 0.000000 0.000000 0.000000 19.181497 -0.412697 0.673840 2.871842 -6.425244 33.025143 3.337567 2.469026 4.940616 -71.497635 -11.488245 -30.207625 -17.656988 -35.907872 7.884588 0.000000 0.000000 0.000000 18.054352 -0.052322 1.207164 8.506814 25.832361 -34.018061 1.323360 3.331150 0.988692 -52.132116 19.447832 19.160933 -16.404639 46.642214 -5.592475 0.000000 0.000000 0.000000 
1.237393 92.209297 1.692223 0.000000 0.000000 0.000000 -37.298137 -14.282883 -6.648295 -64.037559 17.044951 34.006747 83.719944 -22.112089 0.957415 8.313348 4.012645 4.668800 -93.875124 1.033809 -9.557582 0.000000 0.000000 0.000000 -35.695682 -9.412972 -5.273219 -70.572704 -7.834184 -31.596933 94.663471 14.797897 1.560630 25.138388 -1.670749 3.643529 -72.143743 -1.849377 22.999875 0.000000 0.000000 0.000000 -35.296563 -15.973395 -8.444862 10.504800 4.094807 2.570724 21.052509 -0.177657 0.038592 -0.903466 2.439413 -0.707601 0.000000 0.000000 0.000000 25.935768 -0.293703 -0.549208 -17.974425 -5.962772 1.884495 2.519180 13.185946 0.287832 0.000000 0.000000 0.000000 23.017954 -0.664351 0.120754 3.041775 -6.421710 28.689195 2.830443 2.265706 3.818524 -73.711975 -12.711190 -33.668594 -14.619089 -37.042592 10.887625 0.000000 0.000000 0.000000 22.529288 -0.039319 0.746157 8.446448 27.622615 -32.685057 1.214420 4.158978 0.824184 -54.147353 19.127313 20.083627 -13.006424 43.425021 -9.007240 0.000000 0.000000 0.000000 
1.188582 98.988831 -1.801971 0.000000 0.000000 0.000000 -37.194816 -13.445404 -6.753281 -49.607541 20.300739 28.390853 69.184748 -20.536857 0.196601 12.138483 6.309257 3.752545 -103.362837 3.314363 -9.428843 0.000000 0.000000 0.000000 -35.765019 -7.891661 -5.129677 -59.749778 -13.210991 -28.495517 84.330959 13.537641 2.484970 29.397004 0.195115 8.595248 -80.724674 -3.630237 21.863272 0.000000 0.000000 0.000000 -36.199695 -15.976166 -8.724867 10.096192 4.334771 2.695981 23.520366 -0.376184 -0.128420 -2.074607 1.761908 0.070181 0.000000 0.000000 0.000000 28.974800 -0.475931 -0.853385 -14.605953 -6.605908 1.324766 4.950041 11.836767 1.760556 0.000000 0.000000 0.000000 25.990437 -0.898498 -0.277802 3.346085 -6.548351 24.155043 2.078302 0.115625 2.641508 -75.188280 -15.070059 -36.892912 -8.253546 -40.100570 15.437935 0.000000 0.000000 0.000000 26.090266 -0.186719 0.395851 8.439066 29.710394 -29.812096 2.200010 4.814123 0.132339 -56.766761 19.780769 20.601814 -10.027221 42.245410 -11.008020 0.000000 0.000000 0.000000 
1.194983 107.105354 -5.085297 0.000000 0.000000 0.000000 -34.562543 -13.064463 -6.767051 -35.183804 21.387293 21.389953 49.908421 -18.379438 -0.045932 17.251454 7.763657 1.447361 -106.882017 6.148684 -9.503807 0.000000 0.000000 0.000000 -34.162745 -6.727691 -5.129982 -47.858019 -18.051961 -22.734216 70.339289 11.304969 3.358900 33.146946 1.887717 14.543498 -84.554573 -4.384182 21.308792 0.000000 0.000000 0.000000 -34.809175 -16.443102 -8.893127 8.827808 4.344026 2.222497 24.629541 -0.561455 -0.019164 -1.687957 1.411924 0.872167 0.000000 0.000000 0.000000 29.867403 -0.552524 -0.829562 -10.960971 -7.212086 1.027097 5.458975 9.646097 3.438612 0.000000 0.000000 0.000000 27.232253 -1.079399 -0.230099 3.609966 -6.685575 19.591119 1.592137 -1.902461 1.304530 -75.236692 -18.454582 -39.970216 2.527173 -45.801196 22.400319 0.000000 0.000000 0.000000 27.551258 -0.366277 0.434243 8.114809 31.832039 -25.092447 3.352376 5.204055 -1.138763 -58.970863 21.924641 21.571351 -7.138267 43.958370 -11.913564 0.000000 0.000000 0.000000 
